# xmcd CD database file
#
# Track frame offsets:
#	182
#	12920
#	26192
#	41955
#	59187
#	75605
#	89362
#	98555
#	116202
#	130452
#	143482
#	164040
#	184247
#	195850
#	213342
#	232090
#	255485
#	273530
#	287880
#	302620
#	324000
#
# Disc length: 4525 seconds
#
# Revision: 2
# Processed by: cddbd v1.4b41PL1 Copyright (c) Steve Scherf et al.
# Submitted via: Feurio! 1.50.2ß - http://www.feurio.com
#
DISCID=3511ab15
DTITLE=Shirley Bassey - Legendery Performer
DYEAR=1900
DGENRE=
TTITLE0=Goldfinger
TTITLE1=What Now  My Love
TTITLE2=Something
TTITLE3=As Long As He Needs Me
TTITLE4=Kiss Me Honey Honey Kiss Me
TTITLE5=As I Love You
TTITLE6=Big Spender
TTITLE7=Send In The Clowns
TTITLE8=I Am What I Am
TTITLE9=I (Who Have Nothing)
TTITLE10=And I Love You So
TTITLE11=Never, Never, Never
TTITLE12=For All We Know
TTITLE13=This Is My Live
TTITLE14=All By Myself
TTITLE15=This Masquerade
TTITLE16=New York State Of Mind
TTITLE17=Can You Read My Mind
TTITLE18=Only When I Laugh
TTITLE19=Solitaire
TTITLE20=New York Medley
EXTD=
EXTT0=
EXTT1=
EXTT2=
EXTT3=
EXTT4=
EXTT5=
EXTT6=
EXTT7=
EXTT8=
EXTT9=
EXTT10=
EXTT11=
EXTT12=
EXTT13=
EXTT14=
EXTT15=
EXTT16=
EXTT17=
EXTT18=
EXTT19=
EXTT20=
PLAYORDER=
